<svg xmlns="http://www.w3.org/2000/svg" width="227" height="24" viewBox="0 0 227 24">
    <g fill="#FFF" fill-rule="evenodd" opacity=".7">
        <path d="M119.039 16.164c-.972.066-1.865.04-2.718.208a8.958 8.958 0 0 0-2.319.816c-.59.303-.793 1-.535 1.573.198.44.67.927 1.117 1.056 2.656.767 4.511-.739 4.455-3.653M85.338 17.45c1.198 2.169 3.088 2.99 5.337 2.425.59-.148 1.042-.443 1.099-1.092.057-.66-.189-1.201-.842-1.446a10.438 10.438 0 0 0-1.595-.473c-1.41-.282-2.834-.496-4.241-.79-1.69-.354-3.138-1.096-3.967-2.884v5.384c.798-.22 1.464-.407 2.132-.586.67-.179 1.344-.348 2.077-.538m13.446-5.912c-2.2-.62-3.988.345-5.992.856-.875-1.507-2.296-1.983-3.996-1.78-.275.034-.612.029-.803.184-.3.244-.675.602-.688.926-.012.309.329.795.633.921.676.281 1.42.41 2.146.557 1.503.303 3.029.509 4.514.878 2.27.565 3.458 1.94 3.649 4.031.175 1.93-.814 3.643-2.8 4.552-.917.42-1.935.776-2.927.839-1.986.126-3.996.155-5.977-.005-2.355-.19-3.706-1.002-5.457-2.89l-.137 2.864h-5.771l-.21-1.508c-1.994 1.541-4.183 1.903-6.513 1.673-3.13-.31-4.84-1.848-4.966-4.956-.155-3.801-.037-7.614-.037-11.524h5.79c.032.403.09.804.091 1.205.008 2.51.004 5.021.004 7.532 0 .326-.011.652.006.977.095 1.752.77 2.572 2.21 2.698 1.654.144 3.02-.753 3.378-2.271.116-.49.136-1.013.138-1.52.012-2.834.006-5.668.006-8.613h5.866v3.394c1.543-2.384 3.847-3.178 6.39-3.53 3.12-.432 6.11-.114 8.917 1.805l.156-1.676 2.35-.14V3.52l5.96-1.76v5.257l2.816.134v4.122l-2.74.163c0 2.322-.051 4.546.023 6.766.034 1.012.505 1.193 1.958 1.028.045-.079.12-.156.128-.238.25-2.855 1.254-4.202 4.055-4.921 2.017-.518 4.107-.754 6.161-1.136.623-.116 1.233-.3 1.82-.444.259-1.16-.408-1.49-1.18-1.626-1.803-.319-3.523-.126-5.028 1.04-.218.17-.423.357-.752.635l-3.626-2.156c.458-.885 1.124-1.443 1.883-1.866 3.49-1.95 7.166-2.163 10.916-.956 2.474.796 3.55 2.743 3.706 5.214.1 1.575.012 3.161.052 4.741.015.634.146 1.265.221 1.874l1.419.625v3.146c-2.677 1.108-5.255.659-7.031-1.18-4.037 2.149-8.013 2.802-11.948-.38l-.129 1.862c-2.034.3-4.054.554-6.04-.104-1.654-.548-2.407-1.9-2.496-3.536-.123-2.272-.088-4.553-.118-6.83-.006-.497 0-.993 0-1.456zm45.924 1.665v10.23h-5.92v-1.43c-.002-2.698.01-5.395-.01-8.092-.007-1.134-.344-2.13-1.502-2.6-1.104-.45-2.776-.13-3.437.842-.44.65-.705 1.524-.75 2.314-.108 1.9-.041 3.812-.044 5.718v3.307h-5.842V7.176h5.768l.208 1.547c1.935-1.506 4.027-2.03 6.329-1.818 2.442.225 4.292 1.824 4.978 3.855.222.656.222 2.443.222 2.443zM5.892 0v8.445c1.272-.486 2.473-1.107 3.748-1.38 1.06-.228 2.225-.17 3.315-.024 2.531.34 4.22 1.848 4.34 4.348.191 3.98.05 7.976.05 12.07h-5.74c-.026-.49-.068-.94-.069-1.392-.006-2.697.014-5.393-.01-8.09-.017-1.89-.859-2.82-2.495-2.852-1.792-.034-3.084 1.093-3.122 2.84-.051 2.324-.02 4.65-.023 6.974v2.494H0V0h5.892zm26.065 23.5H26.15V7.156h5.73l.188 1.275c1.392-.497 2.727-1.158 4.136-1.418 1.15-.212 2.42-.094 3.582.144 1.818.372 3.04 1.543 3.508 3.385.148.583.292 1.186.296 1.781.027 3.667.014 7.334.014 11.121h-5.787c-.029-.363-.087-.761-.089-1.16-.008-2.461-.004-4.923-.005-7.384 0-.371.01-.744-.015-1.115-.115-1.71-.818-2.52-2.278-2.64-1.575-.13-2.957.75-3.28 2.196-.16.715-.179 1.472-.184 2.211-.021 2.598-.009 5.197-.009 7.948zm-13.06-.017V7.17h5.748v16.313h-5.748zm2.875-17.197c-1.551-.01-2.865-1.09-2.924-2.403-.054-1.2 1.045-2.333 2.484-2.562 1.454-.23 2.984.656 3.307 1.917.41 1.596-.969 3.06-2.867 3.048zM56.246 15.45c-.037-.797-.025-1.542-.113-2.275-.18-1.49-1.102-2.379-2.515-2.502-1.638-.144-2.653.44-3.111 1.924a9.175 9.175 0 0 0-.007 5.473c.459 1.5 1.418 2.045 3.112 1.896 1.394-.123 2.29-.934 2.497-2.355.107-.73.097-1.477.137-2.162m-.078-7.296V.033h5.847v23.445h-5.537c-.1-.298-.215-.634-.34-1.002-.14.031-.28.03-.383.092-1.991 1.191-4.157 1.295-6.35.906-2.294-.407-3.874-1.787-4.613-3.99-.896-2.672-.925-5.397-.07-8.087.795-2.499 2.595-3.902 5.148-4.324 1.932-.32 3.8-.089 5.533.896.16.09.333.155.503.223.037.015.09-.011.262-.039"/>
        <path fill-opacity=".7" d="M204.744 13.243c-.03-1.894-1.296-3.15-3.033-3.103-1.887.05-3.228 1.354-3.128 3.103h6.16zm-.027 4.937c3.18.28 6.322.939 9.335-.504 1.063 1.856 2.497 2.68 4.464 2.577 1.484-.078 2.256-.512 2.372-1.448.118-.957-.515-1.641-1.92-1.988-.762-.188-1.547-.29-2.32-.44-2.165-.418-4.384-.688-6.213-2.474l-.358 2.294c-2.035 0-3.98-.024-5.926.007-1.923.03-3.86-.137-5.746.102-.173 2.046.623 3.394 2.177 3.912 1.716.572 2.823.048 4.135-2.038zm21.521-7.4l-4.357 1.319c-.36-.326-.661-.604-.968-.877-1.168-1.038-2.522-1.07-3.93-.681-.63.174-1.185.628-1.034 1.283.102.439.618.988 1.053 1.106 1.471.402 2.993.617 4.489.937.861.184 1.717.405 2.561.657 1.688.504 2.674 1.656 2.872 3.398.215 1.894-.487 3.463-2.206 4.288-1.235.592-2.622 1.034-3.978 1.168-2.306.227-4.63.2-6.915-.475-1.454-.43-2.615-1.164-3.494-2.378-.13-.18-.29-.34-.468-.548-.193.143-.375.222-.476.36-1.776 2.416-4.335 3.063-7.128 3.105a21.988 21.988 0 0 1-3.327-.226c-3.743-.516-5.59-2.637-6.073-6.376-.228-1.76-.073-3.514.559-5.217.86-2.324 2.633-3.572 4.907-4.121a13.767 13.767 0 0 1 6.369-.045c1.739.4 3.162 1.317 4.188 2.8.314.452.6.924.966 1.491.144-.22.267-.342.314-.489.716-2.283 2.538-3.264 4.647-3.753a15.441 15.441 0 0 1 7.063-.008c1.806.425 3.322 1.36 4.366 3.283zm-81.478-.182V7.566l2.386-.41.185-3.49 5.339-1.631v5.144l2.69.326v3.555l-2.662.218v2.39c0 1.209-.007 2.418.002 3.627.013 1.797.268 2.088 2.015 2.357.181.028.359.075.642.136v3.583c-1.882.05-3.758.35-5.624-.209-1.168-.35-1.93-1.112-2.177-2.31-.15-.724-.273-1.466-.288-2.202-.04-1.952-.006-3.906-.025-5.86-.004-.492.014-1.011-.014-1.537l-2.47.002v-.657zm35.483 12.62h-5.028v-3.593c0-1.86.01-3.718 0-5.577-.01-1.927-.97-3.077-2.606-3.149-1.837-.08-3.355 1.26-3.396 3.12-.055 2.462-.018 4.927-.02 7.39v1.722c-1.815.23-3.532.112-5.348.076V7.496h5.181l.351 1.451c3.576-2.163 7.078-2.817 10.42.287.15-.06.305-.08.4-.164 2.398-2.152 5.234-2.157 8.147-1.606 1.728.327 3.297 2.026 3.376 3.995.15 3.756.072 7.521.083 11.282 0 .082-.078.164-.188.38h-5.135c-.026-.517-.07-1.011-.072-1.506-.007-2.51.01-5.019-.009-7.529-.015-2.015-.764-2.988-2.389-3.175-1.592-.184-3.084.881-3.488 2.54-.119.488-.15 1.007-.154 1.513-.015 2.231 0 4.462-.012 6.693-.002.49-.069.978-.113 1.562zM156.578 7.447h5.23v15.708c-1.688.234-3.427.009-5.23.152V7.446zm2.686-1.486c-1.858-.013-2.775-.76-2.805-2.086-.023-1.027.476-1.767 1.45-2.121.974-.355 1.934-.212 2.818.244.838.433 1.06 1.228.953 2.128a2.053 2.053 0 0 1-1.559 1.738c-.355.084-.731.084-.857.097z"/>
    </g>
</svg>
