<svg xmlns="http://www.w3.org/2000/svg" width="124" height="26" viewBox="0 0 124 26">
    <g fill="#FFF" fill-rule="evenodd" opacity=".7">
        <path d="M112.514 17.355c.156-1.066.11-7.388-.062-7.987-.659-.07-1.327-.156-2.03.076v7.353c0 .053.006.107.016.159.09.485.337.724.838.825.48.099.893 0 1.238-.426m-57.944-.84a12.04 12.04 0 0 1 3.377-1.622c.348.554.685 1.09 1.023 1.625.593.942 1.17 1.895 1.789 2.82.248.371.557.715.892 1.01.975.865 2.475.544 2.964-.667.475-1.172.379-2.343-.326-3.419-.337-.516-.802-.827-1.47-.756-.361.039-.73.007-1.15.007V12.03c.298-.02.578-.054.859-.055 1.938-.005 3.876 0 5.814-.005.31-.001.62-.036.98-.057v-2.52c-.332-.028-.66-.081-.99-.082-3.345-.006-6.69-.003-10.035-.006-.31 0-.622-.025-.98-.041V6.648h66.459c.045.83.02 1.663.013 2.607l-2.514.099v15.913h-3.446V9.372h-1.7v.925c0 2.016.003 4.032-.004 6.048-.001.396-.053.793-.065 1.19-.059 1.877-1.627 3.396-3.439 3.776-1.927.404-3.99-.535-4.891-2.2a3.575 3.575 0 0 1-.42-1.756c.01-2.334.004-4.668.004-7.003v-.846c-.629-.253-1.786-.274-2.575-.044.209.404.418.794.612 1.19.856 1.753.896 3.546.057 5.286-.678 1.41-1.984 2-3.473 2.225-.262.04-.527.064-.789.105-.043.007-.077.064-.162.138.875 1.904 2.744 2.845 4.247 4.224a11.298 11.298 0 0 1-2.341 1.892c-1.39-.398-2.421-1.228-3.3-2.236-2.204-2.525-3.688-5.425-4.356-8.719-.096-.477-.057-.982-.084-1.536h3.376c.115.52.209 1.012.335 1.494.167.637.45 1.186 1.135 1.428.8.282 1.48.089 1.95-.612.462-.688.662-1.433.443-2.264-.241-.92-.664-1.737-1.387-2.36-.226-.196-.552-.383-.835-.387-2.256-.027-4.513-.01-6.769-.002-.075 0-.15.042-.333.099-.03 1.712-.009 3.451-.013 5.19-.004 1.777 0 3.554 0 5.331v5.357a76.33 76.33 0 0 1-3.407 0V9.38c-.827-.12-1.58-.08-2.419-.038.08.229.121.395.192.549 1.212 2.618 1.335 5.31.546 8.062a6.127 6.127 0 0 1-1.091 2.105c-1.202 1.531-2.798 2.07-4.665 1.736-1.337-.239-2.227-1.098-2.595-2.41-.407-1.452-.212-2.842.631-4.108.215-.324.516-.591.8-.91 1.196.061 2.194.64 3.363.943-.792.797-1.64 1.46-1.36 2.63.392.25.7.136.916-.113.238-.273.471-.587.588-.924.425-1.219.604-2.47.292-3.75a8.576 8.576 0 0 0-1.49-3.138c-.36-.479-.801-.733-1.423-.715-.982.029-1.965.005-2.947.01-.208.002-.416.036-.7.063-.097.885-.034 1.752-.046 2.614-.011.876-.002 1.751-.002 2.627V25.29c-.576.01-1.121.025-1.666.03-.553.004-1.107 0-1.765 0-.027-1.371-.01-2.688-.013-4.003-.003-1.327 0-2.653 0-3.98V9.46c-.68-.262-1.296-.139-2-.086v15.906h-3.406v-9.69h-1.583c.094.248.155.462.251.659.976 2.01.575 5.138-1.259 6.933a4.456 4.456 0 0 1-2.205 1.204c-2.458.534-4.538-.093-6.083-2.114-.673-.88-1.205-1.868-1.798-2.81-.394-.627-.757-1.276-1.18-1.884-.253-.363-.595-.665-.958-1.062M40.984 14.575c-.703-.005-1.332.006-1.958-.019-.75-.03-1.25.33-1.63.935-.444.71-.491 1.492-.446 2.295.042.73.367 1.321.9 1.797.96.858 2.398.739 3.134-.25v-4.758zm-12.47-8.004c.647-.932.57-1.734-.304-2.302a6.714 6.714 0 0 0-1.94-.87c-1.766-.454-3.569-.453-5.364-.146-.784.134-1.557.343-2.213.83-.88.652-.998 1.65-.281 2.488h10.101zM14.67 6.532c-.075-.325-.13-.6-.202-.872-.315-1.178.003-2.195.792-3.086.538-.608 1.223-1.011 1.954-1.341C18.836.5 20.567.235 22.32.128c1.965-.12 3.932-.08 5.845.46.685.193 1.364.446 2.001.762 2.128 1.056 2.932 2.797 2.402 5.243.875.056 1.737.02 2.597.027.85.006 1.7.001 2.549.001H50.827c.112.922.078 1.78.027 2.747-2.127.03-4.21-.006-6.342.022v1.86c.233 0 .461.017.686-.003 3.045-.26 5.128 1.104 6.027 4.005.499 1.609.532 3.234-.046 4.841-.721 2.006-2.628 3.593-4.81 3.954-.38-1.046-.642-2.137-.898-3.266.452-.285.87-.556 1.296-.816 1.552-.948 1.663-2.913.888-4.208-.327-.548-.803-.908-1.453-1.011a5.352 5.352 0 0 0-1.707-.005V25.29c-.606.01-1.149.025-1.692.03-.554.006-1.108.002-1.74.002l-.091-1.81c-.442.044-.83.07-1.215.122-2.849.382-5.556-1.536-6.014-4.727-.212-1.475-.178-2.963.277-4.41.697-2.222 2.539-3.75 5.389-3.452.493.052.985.119 1.546.187V9.467c-.21-.03-.41-.08-.61-.083-.717-.01-1.434.003-2.151-.006-1.671-.02-3.342-.05-5.014-.069-.285-.003-.57.032-.96.057-.01 5.325.002 10.59-.007 15.904h-3.439V16.16c-.274-.028-.476-.066-.679-.067a285.736 285.736 0 0 0-3.504 0c-.264.003-.537.013-.788.082-.618.171-.928.762-.75 1.369.172.586.69.897 1.316.666.457-.17.854-.501 1.366-.815l1.958 2.335c-1.91 2.994-5.507 2.508-6.969.418-1.167-1.669-1.312-3.49-.637-5.378.323-.903 1.026-1.46 1.918-1.781.785-.283 1.598-.378 2.426-.38 1.141 0 2.283.004 3.425-.003.284-.001.567-.035.88-.055V9.476c-.573-.203-8.52-.272-9.783-.077-.025.306-.076.636-.077.966-.005 4.616-.003 9.232-.003 13.847v1.06h-3.445c-.033-1.308-.01-2.626-.015-3.943-.003-1.326 0-2.653 0-3.979V9.399c-1.416-.178-2.775-.07-4.171-.076-.198.849-.076 1.64-.097 2.422-.022.787-.005 1.575-.005 2.434-1.001 0-1.899-.02-2.795.006-.66.02-1.327.055-1.978.161-1.536.25-2.19.97-2.415 2.515a4.197 4.197 0 0 0 .199 2.035c.537 1.516 2.022 2.38 3.717 2.133-.025-.248-.046-.501-.075-.754-.196-1.666.643-2.634 2.33-2.686 1.452-.045 2.505.747 2.736 2.12.064.375.004.79-.086 1.166-.099.407-.3.789-.462 1.2.477.746 1.308 1.063 1.936 1.613-.286.614-1.142 1.441-2.25 2.158-.853-.363-1.473-1.126-2.236-1.624-.744.112-1.444.265-2.153.319-3.335.25-6.152-1.747-6.998-4.986-.4-1.537-.417-3.107.016-4.642.638-2.264 2.602-3.804 5.023-4.002.656-.053 1.316-.067 2.031-.102V9.364c-.306-.019-.613-.054-.921-.055-1.885-.006-3.77-.003-5.655-.003H.18V6.653C1 6.54 1.816 6.615 2.627 6.6c.817-.013 1.635-.003 2.543-.003-.37-1.102-1.084-1.882-1.556-2.9L6.4 2.036l2.088 3.687-.808.848c.906.028 1.652.07 2.546-.048-.628-1.212-1.39-2.196-2.003-3.334.958-.55 1.865-1.127 3.002-1.469l2.228 3.766-1.253.905.064.166c.77.064 1.538.076 2.406-.025z"/>
    </g>
</svg>
