<svg xmlns="http://www.w3.org/2000/svg" width="107" height="20" viewBox="0 0 107 20">
    <g fill="none" fill-rule="evenodd" opacity=".7">
        <g fill="#FFF">
            <path d="M0 .05C2.466.053 4.928.005 7.394.061c2.918.168 5.506 2.12 6.898 4.602 1.414 2.632 2.649 5.354 4.08 7.977.47.925 1.4 1.57 2.462 1.596-.04-4.735-.018-9.47-.013-14.205 2.161.017 4.323.009 6.48.013-.008 2.064.005 4.124-.026 6.188-1.5.568-2.757 1.884-2.792 3.54-.209 1.806 1.14 3.406 2.796 3.982.03 2.073.005 4.146.027 6.219-2.149.017-4.297 0-6.442.017-2.488.125-4.945-1.028-6.55-2.881-1.749-2.125-2.657-4.77-4.002-7.14-.909-1.647-1.552-4.132-3.849-4.24.004 4.744-.022 9.487.018 14.23-2.158.035-4.32.026-6.477.01C.022 13.33.026 6.69 0 .05M35.491 4.797c.052 3.466.018 6.937.022 10.403 3.54.047 7.08.017 10.626.021 1.391.06 3.031-.696 3.223-2.206.113-1.935.082-3.883.017-5.823-.135-1.573-1.792-2.446-3.253-2.416-3.545-.018-7.09-.06-10.635.021zM29.19.058C47.469.045 65.75.006 84.031.075c2.723 4.903 5.515 9.762 8.22 14.673 2.701-4.863 5.185-9.848 7.868-14.72 2.292.043 4.584-.03 6.881.051-.383.555-.77 1.101-1.092 1.695-3.227 6.076-6.49 12.14-9.738 18.208-2.618 0-5.237-.004-7.855 0-2.832-5.083-5.733-10.132-8.573-15.21-2.883-.03-5.767-.005-8.65-.014-.005 5.075.021 10.15-.014 15.22-2.07.004-4.145.008-6.215-.004 0-5.075.026-10.154-.013-15.233-3.18.035-6.36.009-9.534.017.578 2.18.526 4.447.452 6.68-.095 2.274-.709 4.682-2.418 6.308-1.64 1.673-4.102 2.25-6.39 2.24-5.915-.017-11.83.018-17.745-.021.017-2.073-.009-4.146.026-6.214 1.396-.538 2.623-1.695 2.753-3.234.305-1.884-1.013-3.638-2.757-4.27-.03-2.065.017-4.13-.048-6.189z"/>
        </g>
        <path fill="#000" fill-opacity=".3" d="M24.483 9.773c.035-1.656 1.292-2.972 2.792-3.54a8.81 8.81 0 0 1 1.962.013c1.744.633 3.062 2.387 2.757 4.27-.13 1.54-1.357 2.697-2.753 3.235a9.97 9.97 0 0 1-1.962.004c-1.657-.576-3.005-2.176-2.796-3.982"/>
    </g>
</svg>
