<svg xmlns="http://www.w3.org/2000/svg" xmlns:xlink="http://www.w3.org/1999/xlink" width="28" height="28" viewBox="0 0 28 28">
    <defs>
        <path id="a" d="M13.732 20.46v-4.266c0-1.775-1.462-3.239-3.235-3.239-1.772 0-3.234 1.464-3.234 3.239v4.219H.536V8.499c0-.445.238-.874.605-1.15L10.5.612l.385.279 8.98 6.514c.357.267.595.696.595 1.142V20.46h-6.727z"/>
    </defs>
    <g fill="none" fill-rule="evenodd">
        <g transform="translate(3.29 3.78)">
            <mask id="b" fill="#fff">
                <use xlink:href="#a"/>
            </mask>
            <use fill="#7FDFD2" fill-rule="nonzero" xlink:href="#a"/>
            <path stroke="#00BFA5" stroke-width="1.342" d="M13.236 20.16v-4.363c0-1.816-1.49-3.313-3.296-3.313-1.806 0-3.296 1.497-3.296 3.313v4.314H-.21V7.927c0-.456.243-.894.617-1.176L9.94-.14l.393.286 9.15 6.662c.363.273.606.712.606 1.168V20.16h-6.854z" mask="url(#b)"/>
            <path stroke="#FFF" stroke-width="1.269" d="M14.776 21v-4.363c0-1.816-1.49-3.313-3.296-3.313-1.806 0-3.296 1.497-3.296 3.313v4.314H1.33V8.767c0-.456.243-.894.617-1.176L11.48.7l.393.286 9.15 6.662c.363.273.606.712.606 1.168V21h-6.854z" mask="url(#b)"/>
        </g>
        <path fill="#000" fill-rule="nonzero" d="M24.447 25.2c.38 0 .718-.316.753-.658v-12.55c0-.781-.388-1.534-1.008-1.98l-9.789-7.08a.678.678 0 0 0-.805 0l-9.79 7.082A2.46 2.46 0 0 0 2.8 11.992v12.501c0 .388.318.707.704.707h7.355a.708.708 0 0 0 .704-.707v-4.639c0-1.32 1.046-2.37 2.364-2.37a2.351 2.351 0 0 1 2.364 2.37v4.64c0 .387.318.706.704.706h7.452zm-6.478-1.365a.27.27 0 0 1-.27-.27v-3.711c0-2.049-1.68-3.734-3.723-3.734s-3.724 1.685-3.724 3.734v3.663a.27.27 0 0 1-.27.27H4.43a.27.27 0 0 1-.27-.27V11.943c0-.324.18-.648.453-.854l9.205-6.641a.27.27 0 0 1 .316 0l9.209 6.693c.269.202.449.527.449.85v11.574a.27.27 0 0 1-.27.27h-5.553z"/>
    </g>
</svg>
