<svg xmlns="http://www.w3.org/2000/svg" width="28" height="28" viewBox="0 0 28 28">
    <g fill="none" fill-rule="evenodd">
        <path fill="#7FDFD2" d="M22.91 15.178L14 23.658l-8.91-8.48a2.472 2.472 0 0 1-.378-.4h3.222a.642.642 0 0 0 .493-.257l1.452-2.198 2.728 5.14c.106.173.288.29.493.313h.03a.611.611 0 0 0 .493-.285l3.076-4.968 1.887 1.798a.556.556 0 0 0 .813 0 .593.593 0 0 0 0-.828l-2.41-2.284a.646.646 0 0 0-.493-.143.552.552 0 0 0-.406.257l-2.932 4.712-2.699-5.111a.613.613 0 0 0-1.016-.029l-1.828 2.741H3.987A6.12 6.12 0 0 1 5.09 6.584a5.94 5.94 0 0 1 4.237-1.77c1.22 0 2.7.799 4.267 2.312a.556.556 0 0 0 .812 0 6.933 6.933 0 0 1 4.79-2.056h.028a5.297 5.297 0 0 1 3.686 1.514 6.115 6.115 0 0 1 1.771 4.311 6.03 6.03 0 0 1-1.77 4.283z"/>
        <path stroke="#00BFA5" stroke-width=".926" d="M22.475 15.047l-8.91 8.48-8.911-8.48a2.472 2.472 0 0 1-.378-.4h3.222a.642.642 0 0 0 .494-.257l1.45-2.199 2.73 5.14c.105.174.288.29.493.314h.029a.611.611 0 0 0 .493-.286l3.077-4.968 1.886 1.799a.556.556 0 0 0 .813 0 .593.593 0 0 0 0-.828l-2.41-2.284a.646.646 0 0 0-.493-.143.552.552 0 0 0-.406.257l-2.931 4.711-2.7-5.11a.613.613 0 0 0-1.016-.029l-1.828 2.74H3.55a6.12 6.12 0 0 1 1.103-7.052 5.94 5.94 0 0 1 4.237-1.77c1.22 0 2.7.8 4.267 2.313a.556.556 0 0 0 .813 0 6.933 6.933 0 0 1 4.789-2.056h.029a5.297 5.297 0 0 1 3.686 1.513 6.115 6.115 0 0 1 1.77 4.312 6.03 6.03 0 0 1-1.77 4.283z"/>
        <path stroke="#FFF" stroke-width=".926" d="M23.334 15.441l-8.91 8.48-8.91-8.48a2.472 2.472 0 0 1-.378-.4h3.222a.642.642 0 0 0 .493-.257l1.451-2.198 2.729 5.14c.106.173.288.29.493.313h.029a.611.611 0 0 0 .493-.285l3.077-4.968 1.887 1.798a.556.556 0 0 0 .812 0 .593.593 0 0 0 0-.828l-2.409-2.284a.646.646 0 0 0-.493-.143.552.552 0 0 0-.407.257l-2.931 4.712-2.7-5.111a.613.613 0 0 0-1.016-.029L8.039 13.9H4.41a6.12 6.12 0 0 1 1.103-7.052 5.94 5.94 0 0 1 4.238-1.77c1.219 0 2.7.799 4.266 2.312a.556.556 0 0 0 .813 0 6.933 6.933 0 0 1 4.79-2.056h.028a5.297 5.297 0 0 1 3.686 1.514 6.115 6.115 0 0 1 1.77 4.311 6.03 6.03 0 0 1-1.77 4.283z"/>
        <path fill="#000" fill-rule="nonzero" d="M23.752 5.784a6.468 6.468 0 0 0-4.528-1.856h-.029A8.025 8.025 0 0 0 14 5.956C12.346 4.442 10.778 3.67 9.327 3.67c-1.912.01-3.74.77-5.08 2.113a7.28 7.28 0 0 0 .03 10.222l9.317 8.851a.556.556 0 0 0 .812 0l9.346-8.88a7.252 7.252 0 0 0 0-10.193zm-.842 9.394L14 23.658l-8.91-8.48a2.472 2.472 0 0 1-.378-.4h3.222a.642.642 0 0 0 .493-.257l1.452-2.198 2.728 5.14c.106.173.288.29.493.313h.03a.611.611 0 0 0 .493-.285l3.076-4.968 1.887 1.798a.556.556 0 0 0 .813 0 .593.593 0 0 0 0-.828l-2.41-2.284a.646.646 0 0 0-.493-.143.552.552 0 0 0-.406.257l-2.932 4.712-2.699-5.111a.613.613 0 0 0-1.016-.029l-1.828 2.741H3.987A6.12 6.12 0 0 1 5.09 6.584a5.94 5.94 0 0 1 4.237-1.77c1.22 0 2.7.799 4.267 2.312a.556.556 0 0 0 .812 0 6.933 6.933 0 0 1 4.79-2.056h.028a5.297 5.297 0 0 1 3.686 1.514 6.115 6.115 0 0 1 1.771 4.311 6.03 6.03 0 0 1-1.77 4.283z"/>
    </g>
</svg>
