<svg xmlns="http://www.w3.org/2000/svg" xmlns:xlink="http://www.w3.org/1999/xlink" width="28" height="28" viewBox="0 0 28 28">
    <defs>
        <path id="a" d="M1.05.7h2.8V14h-2.8z"/>
    </defs>
    <g fill="none" fill-rule="evenodd">
        <path fill="#7FDFD2" d="M14 18.479a6.332 6.332 0 0 1 5.438 3.077h-2.82a.626.626 0 0 0-.63.622c0 .344.283.623.63.623h3.393c.137.415.232.849.277 1.297H7.712c.317-3.15 3.016-5.62 6.288-5.62z"/>
        <path stroke="#00BFA5" stroke-width=".7" d="M13.952 17.85a6.364 6.364 0 0 1 5.467 3.094l.317.53H16.44a.245.245 0 0 0-.249.24c0 .133.11.242.249.242h3.476l.08.24c.14.427.233.864.278 1.307l.039.385H7.593l.038-.385c.322-3.193 3.055-5.653 6.321-5.653z"/>
        <path stroke="#FFF" stroke-width=".7" d="M14.688 18.549a6.681 6.681 0 0 1 5.738 3.247l.317.53h-3.437a.276.276 0 0 0-.28.272c0 .15.125.273.28.273h3.646l.08.24c.146.449.245.907.292 1.372l.039.385H8.013l.039-.385c.337-3.352 3.207-5.934 6.636-5.934z"/>
        <g transform="translate(11.55 .7)">
            <mask id="b" fill="#fff">
                <use xlink:href="#a"/>
            </mask>
            <use fill="#7FDFD2" xlink:href="#a"/>
            <path stroke="#00BFA5" stroke-width="1.4" d="M-.35-.7h4.2V14h-4.2z" mask="url(#b)"/>
            <rect width="4.2" height="15.4" x="1.19" y=".42" stroke="#FFF" stroke-width="1.4" mask="url(#b)" rx="1.26"/>
        </g>
        <path fill="#000" fill-rule="nonzero" d="M4.806 25.971c0 1.033.85 1.873 1.897 1.873h14.595c1.045 0 1.897-.84 1.897-1.873 0-.947-.716-1.73-1.642-1.854a7.335 7.335 0 0 0-.503-2.14 7.61 7.61 0 0 0-4.45-4.29V2.723c0-1.415-1.167-2.566-2.6-2.566s-2.598 1.151-2.598 2.566v5.522c0 .344 1.26.344 1.26 0V2.722c0-.729.6-1.322 1.338-1.322.739 0 1.34.593 1.34 1.322V14.7h-2.678V7.35c0-.343-1.26-.343-1.26 0v10.338c-2.72.984-4.714 3.466-4.955 6.43a1.882 1.882 0 0 0-1.64 1.853zm17.128 0a.633.633 0 0 1-.636.629H6.702a.633.633 0 0 1-.636-.629c0-.347.285-.629.636-.629h14.596c.35 0 .636.283.636.63zm-9.273-10.027h2.678v1.41a7.685 7.685 0 0 0-1.339-.12c-.457 0-.904.043-1.339.12v-1.41zM14 18.48a6.332 6.332 0 0 1 5.438 3.077h-2.82a.626.626 0 0 0-.63.622c0 .344.283.623.63.623h3.393c.137.415.232.849.277 1.297H7.712c.317-3.15 3.016-5.62 6.288-5.62zM3.312 5.87c.849 0 1.537.686 1.537 1.534a.512.512 0 0 0 1.024 0c0-.848.688-1.535 1.537-1.535a.512.512 0 1 0 0-1.023 1.536 1.536 0 0 1-1.537-1.534.512.512 0 0 0-1.024 0c0 .847-.688 1.534-1.537 1.534a.512.512 0 1 0 0 1.023zm2.049-1.024c.146.194.318.366.512.512a2.595 2.595 0 0 0-.512.511 2.595 2.595 0 0 0-.512-.511c.194-.146.366-.318.512-.512zM20.754 15.638c0 .283.229.512.512.512.848 0 1.536.687 1.536 1.535a.512.512 0 0 0 1.025 0c0-.848.688-1.535 1.536-1.535a.512.512 0 1 0 0-1.023 1.536 1.536 0 0 1-1.536-1.535.512.512 0 0 0-1.025 0c0 .848-.688 1.535-1.536 1.535a.512.512 0 0 0-.512.511zm2.56-.511c.147.193.319.366.513.511a2.595 2.595 0 0 0-.512.512 2.595 2.595 0 0 0-.513-.512c.194-.145.367-.318.513-.511z"/>
    </g>
</svg>
