<svg xmlns="http://www.w3.org/2000/svg" xmlns:xlink="http://www.w3.org/1999/xlink" width="28" height="28" viewBox="0 0 28 28">
    <defs>
        <path id="a" d="M18.498 13.598c-.673.031-1.302.34-1.734.852l-1.078 1.291V4.024a1.738 1.738 0 0 0-.833-1.622 1.768 1.768 0 0 0-1.834 0 1.738 1.738 0 0 0-.833 1.622v7.273a.27.27 0 0 1-.283.267.268.268 0 0 1-.27-.267V1.88A1.738 1.738 0 0 0 10.8.257a1.768 1.768 0 0 0-1.834 0 1.738 1.738 0 0 0-.833 1.622v9.418a.27.27 0 0 1-.283.267.268.268 0 0 1-.27-.267v-7.81a1.75 1.75 0 0 0-1.75-1.606c-.916 0-1.678.7-1.75 1.606v7.805a.266.266 0 0 1-.076.182.27.27 0 0 1-.18.075h-.048a.268.268 0 0 1-.27-.268V6.167a1.738 1.738 0 0 0-.833-1.622 1.768 1.768 0 0 0-1.834 0 1.738 1.738 0 0 0-.834 1.622v12.62C.005 22.33 2.9 25.2 6.47 25.2h4.446a6.484 6.484 0 0 0 4.944-2.285l4.578-5.402a2.369 2.369 0 0 0 .316-2.587 2.405 2.405 0 0 0-2.26-1.328h.005z"/>
    </defs>
    <g fill="none" fill-rule="evenodd">
        <g transform="translate(2.8 1.4)">
            <mask id="b" fill="#fff">
                <use xlink:href="#a"/>
            </mask>
            <use fill="#7FDFD2" fill-rule="nonzero" transform="matrix(-1 0 0 1 21 0)" xlink:href="#a"/>
            <path stroke="#00BFA5" stroke-linejoin="round" stroke-width="1.4" d="M18.078 12.898c-.673.031-1.302.34-1.734.852l-1.078 1.291V3.324a1.738 1.738 0 0 0-.833-1.622 1.768 1.768 0 0 0-1.834 0 1.738 1.738 0 0 0-.833 1.622v7.273a.27.27 0 0 1-.283.267.268.268 0 0 1-.27-.267V1.18a1.738 1.738 0 0 0-.833-1.622 1.768 1.768 0 0 0-1.834 0 1.738 1.738 0 0 0-.833 1.622v9.418a.27.27 0 0 1-.283.267.268.268 0 0 1-.27-.267v-7.81a1.75 1.75 0 0 0-1.75-1.606c-.916 0-1.678.7-1.75 1.606v7.805a.266.266 0 0 1-.076.182.27.27 0 0 1-.18.075h-.048a.268.268 0 0 1-.27-.268V5.467a1.738 1.738 0 0 0-.833-1.622 1.768 1.768 0 0 0-1.834 0 1.738 1.738 0 0 0-.834 1.622v12.62c0 3.542 2.894 6.413 6.464 6.413h4.446a6.484 6.484 0 0 0 4.944-2.285l4.578-5.402a2.369 2.369 0 0 0 .316-2.587 2.405 2.405 0 0 0-2.26-1.328h.005z" mask="url(#b)" transform="matrix(-1 0 0 1 20.16 0)"/>
            <path stroke="#FFF" stroke-linejoin="round" stroke-width="1.4" d="M19.338 14.088c-.673.031-1.302.34-1.734.852l-1.078 1.291V4.514a1.738 1.738 0 0 0-.833-1.622 1.768 1.768 0 0 0-1.834 0 1.738 1.738 0 0 0-.833 1.622v7.273a.27.27 0 0 1-.283.267.268.268 0 0 1-.27-.267V2.37A1.738 1.738 0 0 0 11.64.747a1.768 1.768 0 0 0-1.834 0 1.738 1.738 0 0 0-.833 1.622v9.418a.27.27 0 0 1-.283.267.268.268 0 0 1-.27-.267v-7.81a1.75 1.75 0 0 0-1.75-1.606c-.916 0-1.678.7-1.75 1.606v7.805a.266.266 0 0 1-.076.182.27.27 0 0 1-.18.075h-.048a.268.268 0 0 1-.27-.268V6.657a1.738 1.738 0 0 0-.833-1.622 1.768 1.768 0 0 0-1.834 0 1.738 1.738 0 0 0-.834 1.622v12.62c0 3.542 2.894 6.413 6.464 6.413h4.446a6.484 6.484 0 0 0 4.944-2.285l4.578-5.402a2.369 2.369 0 0 0 .316-2.587 2.405 2.405 0 0 0-2.26-1.328h.005z" mask="url(#b)" transform="matrix(-1 0 0 1 22.68 0)"/>
        </g>
        <path stroke="#000" stroke-linejoin="round" stroke-width="1.2" d="M5.302 14.998c.673.031 1.302.34 1.734.852l1.078 1.291V5.424c-.052-.653.27-1.28.833-1.622a1.768 1.768 0 0 1 1.834 0c.563.343.885.97.833 1.622v7.273a.27.27 0 0 0 .283.267c.149 0 .27-.119.27-.267V3.28c-.052-.654.27-1.28.833-1.622a1.768 1.768 0 0 1 1.834 0c.563.342.885.968.833 1.622v9.418a.27.27 0 0 0 .283.267c.149 0 .27-.119.27-.267v-7.81a1.75 1.75 0 0 1 1.75-1.606c.916 0 1.678.7 1.75 1.606v7.805a.266.266 0 0 0 .076.182.27.27 0 0 0 .18.075h.048c.15 0 .27-.12.27-.268V7.567c-.052-.653.27-1.28.833-1.622a1.768 1.768 0 0 1 1.834 0c.563.342.885.97.834 1.622v12.62c0 3.542-2.894 6.413-6.464 6.413h-4.446a6.484 6.484 0 0 1-4.944-2.285l-4.578-5.402a2.369 2.369 0 0 1-.316-2.587 2.405 2.405 0 0 1 2.26-1.328h-.005z"/>
    </g>
</svg>
