<svg xmlns="http://www.w3.org/2000/svg" xmlns:xlink="http://www.w3.org/1999/xlink" width="28" height="28" viewBox="0 0 28 28">
    <defs>
        <path id="a" d="M8.466 15.198c-3.744 0-6.798-3.021-6.798-6.765 0-3.744 3.054-6.798 6.798-6.798 3.743 0 6.797 3.054 6.797 6.798s-3.086 6.765-6.797 6.765z"/>
    </defs>
    <g fill="none" fill-rule="evenodd">
        <g transform="translate(5.6 5.6)">
            <mask id="b" fill="#fff">
                <use xlink:href="#a"/>
            </mask>
            <use fill="#00BFA5" opacity=".5" xlink:href="#a"/>
            <path fill="#00BFA5" fill-rule="nonzero" stroke="#00BFA5" stroke-width=".665" d="M7.766.278C3.66.278.31 3.628.31 7.733s3.35 7.454 7.455 7.454 7.454-3.35 7.454-7.454c0-4.105-3.382-7.455-7.454-7.455zm0 14.22c-3.744 0-6.798-3.021-6.798-6.765C.968 3.989 4.022.935 7.766.935c3.743 0 6.797 3.054 6.797 6.798s-3.086 6.765-6.797 6.765z" mask="url(#b)"/>
            <path fill="#FFF" fill-rule="nonzero" stroke="#FFF" stroke-width=".665" d="M9.166 1.678c-4.105 0-7.455 3.35-7.455 7.455s3.35 7.454 7.455 7.454 7.454-3.35 7.454-7.454c0-4.105-3.382-7.455-7.454-7.455zm0 14.22c-3.744 0-6.798-3.021-6.798-6.765 0-3.744 3.054-6.798 6.798-6.798 3.743 0 6.797 3.054 6.797 6.798s-3.086 6.765-6.797 6.765z" mask="url(#b)"/>
        </g>
        <path fill="#000" fill-rule="nonzero" stroke="#000" stroke-width=".665" d="M14.066 6.578c-4.105 0-7.455 3.35-7.455 7.455s3.35 7.454 7.455 7.454 7.454-3.35 7.454-7.454c0-4.105-3.382-7.455-7.454-7.455zm0 14.22c-3.744 0-6.798-3.021-6.798-6.765 0-3.744 3.054-6.798 6.798-6.798 3.743 0 6.797 3.054 6.797 6.798s-3.086 6.765-6.797 6.765zM14.099 4.903c.197 0 .328-.13.328-.328V1.291c0-.197-.131-.328-.328-.328-.198 0-.329.131-.329.328v3.284a.33.33 0 0 0 .329.328zM14.427 26.873V23.59c0-.197-.131-.328-.328-.328-.198 0-.329.131-.329.328v3.284c0 .197.131.328.329.328a.33.33 0 0 0 .328-.328zM18.565 6.086a.296.296 0 0 0 .164.033c.098 0 .23-.066.295-.165l1.642-2.857c.099-.164.033-.361-.13-.46-.165-.098-.362-.032-.46.132l-1.643 2.857c-.065.164-.033.361.132.46zM22.341 9.468l2.824-1.675c.165-.098.197-.295.132-.46-.099-.164-.296-.196-.46-.13L22.013 8.91c-.164.098-.197.295-.132.46a.345.345 0 0 0 .296.164.25.25 0 0 0 .164-.066zM26.807 13.475l-3.284.065a.33.33 0 0 0-.328.329c0 .164.164.328.328.328l3.284-.066a.33.33 0 0 0 .329-.328.353.353 0 0 0-.329-.328zM25.395 19.845l-2.89-1.576c-.164-.098-.36-.033-.46.131-.098.165-.032.362.132.46l2.89 1.577a.296.296 0 0 0 .164.032c.131 0 .23-.065.296-.164.065-.164.033-.361-.132-.46zM19.287 21.914c-.098-.164-.295-.197-.46-.098-.164.098-.197.295-.098.46l1.708 2.79a.345.345 0 0 0 .295.165c.066 0 .131 0 .164-.033.164-.098.197-.295.099-.46l-1.708-2.824zM8.122 25.625c.131 0 .23-.065.295-.164l1.544-2.923c.098-.164.033-.361-.132-.46-.164-.098-.36-.032-.46.132l-1.543 2.923c-.098.164-.033.36.132.46.065.032.098.032.164.032zM6.348 18.926c-.098-.164-.295-.197-.46-.099L3.13 20.601c-.164.098-.197.295-.098.46.065.098.164.164.262.164a.25.25 0 0 0 .165-.066l2.758-1.773c.197-.099.23-.296.131-.46zM4.936 14.493c0-.197-.164-.329-.328-.296l-3.284.164c-.197 0-.328.164-.296.329 0 .164.165.328.329.328h.033l3.284-.164c.13-.033.262-.197.262-.361zM2.539 8.549l2.923 1.477c.033.033.098.033.164.033.131 0 .23-.065.295-.164.066-.164.033-.361-.13-.427L2.866 7.99c-.164-.065-.36-.032-.427.132-.13.164-.065.361.099.427zM8.549 6.316a.299.299 0 0 0 .262.13c.066 0 .132-.032.197-.065.165-.098.197-.295.099-.46L7.3 3.196c-.099-.164-.296-.197-.46-.099-.164.099-.197.296-.099.46L8.55 6.316z"/>
        <path fill="#000" fill-rule="nonzero" stroke="#000" stroke-width=".665" d="M15.954 14.475l-3.186-1.513 3.212-1.858c.133-.08.16-.24.107-.372-.08-.133-.24-.16-.372-.106l-3.664 2.097a.279.279 0 0 0-.133.239c0 .106.053.186.16.239l3.239 1.513-3.293 2.204c-.132.08-.159.239-.08.372.054.08.134.106.213.106.053 0 .106-.027.16-.053l3.69-2.47c.08-.053.133-.132.106-.238-.026-.027-.08-.107-.16-.16z"/>
    </g>
</svg>
