<svg xmlns="http://www.w3.org/2000/svg" xmlns:xlink="http://www.w3.org/1999/xlink" width="28" height="28" viewBox="0 0 28 28">
    <defs>
        <path id="a" d="M3.05 5.535c.242-.357.485-.705.729-1.044a39.474 39.474 0 0 1 2.18-2.776c.415-.479.761-.85.895-.98a1.023 1.023 0 0 1 1.412 0c.2.197.603.634 1.116 1.24.847 1 1.745 2.174 2.655 3.513 1.939 2.852 2.925 5.275 2.925 7.212 0 4.26-2.986 7.137-7.402 7.137S.158 16.959.158 12.7c0-.847.188-1.787.563-2.814.477-1.31 1.256-2.764 2.33-4.35z"/>
    </defs>
    <g fill="none" fill-rule="evenodd">
        <g transform="translate(6.44 3.662)">
            <mask id="b" fill="#fff">
                <use xlink:href="#a"/>
            </mask>
            <use fill="#00BFA5" opacity=".5" xlink:href="#a"/>
            <path stroke="#00BFA5" stroke-width="1.292" d="M2.452 6.052c.242-.357.485-.705.728-1.044a39.474 39.474 0 0 1 2.181-2.776c.415-.479.76-.85.894-.98a1.023 1.023 0 0 1 1.412 0c.2.197.604.634 1.116 1.24.848 1 1.746 2.174 2.656 3.513 1.938 2.852 2.925 5.274 2.925 7.212 0 4.259-2.987 7.137-7.402 7.137-4.416 0-7.403-2.878-7.403-7.137 0-.847.189-1.787.563-2.814.477-1.31 1.256-2.764 2.33-4.351z" mask="url(#b)"/>
            <path stroke="#FFF" stroke-width="1.292" d="M3.712 5.987c.242-.357.485-.705.728-1.043a39.474 39.474 0 0 1 2.181-2.776c.415-.48.76-.85.894-.98a1.023 1.023 0 0 1 1.412-.001c.2.198.604.634 1.116 1.24.848 1 1.746 2.174 2.656 3.513 1.938 2.852 2.925 5.275 2.925 7.213 0 4.258-2.987 7.136-7.402 7.136-4.416 0-7.403-2.878-7.403-7.136 0-.848.189-1.787.563-2.815.477-1.31 1.256-2.764 2.33-4.35z" mask="url(#b)"/>
        </g>
        <path fill="#000" d="M16.433 24.658c0-.2.122-.376.305-.44 3.418-1.2 5.767-4.512 5.767-8.276 0-1.982-1.369-4.735-3.687-7.886a51.848 51.848 0 0 0-2.75-3.406 49.262 49.262 0 0 0-1.617-1.765.624.624 0 0 0-.901 0c-.42.434-.979 1.036-1.618 1.765a51.843 51.843 0 0 0-2.75 3.406c-2.318 3.15-3.687 5.904-3.687 7.886 0 3.764 2.35 7.076 5.768 8.276a.464.464 0 0 1 .306.44v.511a.124.124 0 0 0 .213.086l1.677-1.742a.124.124 0 0 0 0-.172L11.782 21.6a.124.124 0 0 0-.213.086v.562c0 .341-.344.566-.644.42-2.515-1.221-4.157-3.823-4.157-6.726 0-2.601 3.024-7.046 6.903-11.302a.442.442 0 0 1 .658 0c3.878 4.255 6.903 8.7 6.903 11.302 0 2.903-1.642 5.504-4.156 6.727-.3.145-.643-.08-.643-.42v-.572a.124.124 0 0 0-.212-.087l-1.75 1.75a.124.124 0 0 0 0 .175l1.75 1.75a.124.124 0 0 0 .212-.088v-.52z"/>
    </g>
</svg>
