<svg xmlns="http://www.w3.org/2000/svg" xmlns:xlink="http://www.w3.org/1999/xlink" width="28" height="28" viewBox="0 0 28 28">
    <defs>
        <path id="a" d="M2.602 12.928L.038 14.429l2.664 4.441 2.565-1.502a.621.621 0 0 1 .693.044c.61.471 1.286.853 2.006 1.135a.61.61 0 0 1 .39.566v2.941h5.656v-2.94c0-.251.154-.475.39-.567a8.121 8.121 0 0 0 2.007-1.134.621.621 0 0 1 .693-.044l2.564 1.501 2.664-4.44-2.564-1.502a.607.607 0 0 1-.295-.62c.077-.473.114-.892.114-1.281 0-.36-.032-.738-.1-1.19a.606.606 0 0 1 .302-.617l2.581-1.472-2.614-4.472-2.577 1.472a.622.622 0 0 1-.692-.05 8.182 8.182 0 0 0-2.084-1.191.609.609 0 0 1-.39-.566V0H8.357v2.94a.61.61 0 0 1-.39.566 8.162 8.162 0 0 0-2.083 1.19.622.622 0 0 1-.692.051L2.614 3.276 0 7.747 2.581 9.22c.22.125.339.37.302.617-.068.453-.1.831-.1 1.19 0 .393.037.8.114 1.28a.607.607 0 0 1-.295.62z"/>
    </defs>
    <g fill="none" fill-rule="evenodd" transform="translate(2.5 2)">
        <g transform="translate(.316 .649)">
            <mask id="b" fill="#fff">
                <use xlink:href="#a"/>
            </mask>
            <use fill="#00BFA5" fill-opacity=".5" xlink:href="#a"/>
            <path stroke="#00BFA5" stroke-linecap="round" stroke-linejoin="round" stroke-width="1.297" d="M1.55 12.279l-2.565 1.501 2.664 4.441 2.565-1.501a.621.621 0 0 1 .693.044c.61.47 1.286.852 2.007 1.134a.61.61 0 0 1 .39.566v2.941h5.655v-2.94c0-.25.155-.475.39-.567a8.121 8.121 0 0 0 2.007-1.134.621.621 0 0 1 .693-.044l2.565 1.502 2.664-4.441-2.565-1.502a.607.607 0 0 1-.294-.62c.076-.472.113-.892.113-1.28 0-.36-.032-.738-.099-1.19a.606.606 0 0 1 .302-.617l2.58-1.473-2.613-4.471-2.577 1.471a.622.622 0 0 1-.692-.05 8.182 8.182 0 0 0-2.084-1.19.609.609 0 0 1-.39-.567v-2.94H7.304v2.94a.61.61 0 0 1-.39.566 8.162 8.162 0 0 0-2.083 1.19.622.622 0 0 1-.692.05L1.56 2.629l-2.614 4.47L1.53 8.571c.219.125.338.37.301.617-.068.453-.1.831-.1 1.19 0 .393.037.8.114 1.281a.607.607 0 0 1-.294.62z" mask="url(#b)"/>
            <path stroke="#FEFEFE" stroke-linecap="round" stroke-linejoin="round" stroke-width="1.297" d="M3.787 13.641l-2.565 1.502 2.664 4.44 2.565-1.501a.621.621 0 0 1 .693.044c.61.47 1.286.852 2.007 1.134a.61.61 0 0 1 .39.566v2.942h5.655v-2.941c0-.25.155-.475.39-.566a8.121 8.121 0 0 0 2.007-1.135.621.621 0 0 1 .693-.044l2.564 1.502 2.665-4.441-2.565-1.501a.607.607 0 0 1-.294-.62c.076-.473.113-.892.113-1.282 0-.36-.032-.737-.099-1.19a.606.606 0 0 1 .301-.616l2.582-1.473-2.614-4.471-2.578 1.472a.622.622 0 0 1-.692-.051 8.182 8.182 0 0 0-2.083-1.19.609.609 0 0 1-.39-.566V.714H9.54v2.94a.61.61 0 0 1-.39.566 8.162 8.162 0 0 0-2.084 1.19.622.622 0 0 1-.692.051L3.798 3.989 1.184 8.461l2.581 1.472c.22.126.34.37.302.617-.068.453-.1.832-.1 1.19 0 .394.037.8.114 1.281a.607.607 0 0 1-.294.62z" mask="url(#b)"/>
        </g>
        <path stroke="#000" stroke-linecap="round" stroke-linejoin="round" stroke-width="1.297" d="M2.918 13.576L.354 15.078l2.663 4.44 2.565-1.501a.621.621 0 0 1 .693.044c.61.47 1.287.853 2.007 1.134a.61.61 0 0 1 .39.566v2.942h5.655v-2.941c0-.25.155-.474.39-.566a8.121 8.121 0 0 0 2.008-1.135.621.621 0 0 1 .693-.044l2.564 1.502 2.664-4.441-2.564-1.501a.607.607 0 0 1-.295-.62c.076-.473.114-.892.114-1.281 0-.36-.032-.738-.1-1.19a.606.606 0 0 1 .302-.617l2.581-1.473-2.614-4.47-2.577 1.47a.622.622 0 0 1-.692-.05 8.182 8.182 0 0 0-2.084-1.19.609.609 0 0 1-.39-.566V.649H8.672v2.94a.61.61 0 0 1-.39.566A8.162 8.162 0 0 0 6.2 5.345a.622.622 0 0 1-.692.051L2.93 3.925.316 8.395l2.581 1.473c.219.126.339.37.301.617-.068.453-.099.832-.099 1.19 0 .394.036.8.114 1.281a.607.607 0 0 1-.295.62z"/>
        <ellipse cx="11.5" cy="11.676" fill="#FFF" stroke="#000" stroke-width="1.297" rx="4.934" ry="4.865"/>
    </g>
</svg>
