<svg xmlns="http://www.w3.org/2000/svg" xmlns:xlink="http://www.w3.org/1999/xlink" width="28" height="28" viewBox="0 0 28 28">
    <defs>
        <path id="a" d="M6.403 9.33C7.755 7.716 8.215 4.46 8.12.743L1.256 8.098c.703.969 1.213 2.08 1.549 3.31 1.566-.399 2.775-1.097 3.598-2.079z"/>
        <path id="c" d="M15.28 15.904L1.172 1.254c.159 5.234 1.08 9.892 3.174 12.072 2.37 2.465 6.526 3.052 10.932 2.578z"/>
        <path id="e" d="M14.916 15.723c.797-4.227.43-8.351-2.096-10.98C10.713 2.553 6.029 1.415.746 1.009l14.17 14.715z"/>
        <path id="g" d="M2.349 3.926c-.476.568-.831 1.292-1.06 2.156 1.003.495 1.828 1.056 2.455 1.692L10.33.717c-3.623.6-6.663 1.637-7.981 3.21z"/>
    </defs>
    <g fill="none" fill-rule="evenodd">
        <g transform="translate(16.653 4.083)">
            <mask id="b" fill="#fff">
                <use xlink:href="#a"/>
            </mask>
            <use fill="#7FDFD2" xlink:href="#a"/>
            <path stroke="#00BFA5" stroke-linecap="round" stroke-linejoin="round" stroke-width="1.326" d="M6.248 9.094c-.919 1.096-2.25 1.865-3.943 2.295l-.632.16-.171-.628C1.182 9.747.7 8.714.056 7.827l-.321-.443 8.342-8.938.042 1.62c.108 4.197-.473 7.362-1.87 9.028z" mask="url(#b)"/>
            <path stroke="#FFF" stroke-width="1.326" d="M7.575 10.416c-.92 1.097-2.25 1.865-3.944 2.295l-.632.16-.171-.628c-.32-1.174-.8-2.206-1.446-3.094l-.321-.442L9.403-.232l.042 1.62c.109 4.197-.473 7.362-1.87 9.028z" mask="url(#b)"/>
        </g>
        <g transform="translate(2.063 8.05)">
            <mask id="d" fill="#fff">
                <use xlink:href="#c"/>
            </mask>
            <use fill="#7FDFD2" xlink:href="#c"/>
            <path stroke="#00BFA5" stroke-linecap="round" stroke-linejoin="round" stroke-width="1.326" d="M14.687 15.902c-5.04.542-9.11-.312-11.481-2.778C1.11 10.944.026 6.512-.154.614l-.052-1.72 16.238 16.864-1.345.144z" mask="url(#d)"/>
            <path stroke="#FFF" stroke-width="1.326" d="M16.014 17.225c-5.04.542-9.112-.312-11.482-2.779-2.095-2.18-3.18-6.611-3.36-12.51L1.122.215 17.359 17.08l-1.345.145z" mask="url(#d)"/>
        </g>
        <g transform="translate(3.39 7.389)">
            <mask id="f" fill="#fff">
                <use xlink:href="#e"/>
            </mask>
            <use fill="#7FDFD2" xlink:href="#e"/>
            <path stroke="#00BFA5" stroke-linecap="round" stroke-linejoin="round" stroke-width="1.326" d="M14.666 16.448L-1.603-.448l1.737.133c5.96.46 10.398 1.75 12.501 3.938 2.517 2.619 3.184 6.711 2.27 11.562l-.239 1.263z" mask="url(#f)"/>
            <path stroke="#FFF" stroke-width="1.326" d="M15.993 17.77L-.277.874l1.737.134c5.96.458 10.398 1.749 12.501 3.937 2.517 2.619 3.185 6.711 2.27 11.562l-.238 1.263z" mask="url(#f)"/>
        </g>
        <g transform="translate(13.337 3.422)">
            <mask id="h" fill="#fff">
                <use xlink:href="#g"/>
            </mask>
            <use fill="#7FDFD2" xlink:href="#g"/>
            <path stroke="#00BFA5" stroke-linecap="round" stroke-linejoin="round" stroke-width="1.326" d="M1.178 2.839C2.544 1.209 5.486.075 9.559-.599l1.923-.318L3.094 8.07l-.486-.493c-.563-.57-1.322-1.092-2.275-1.562l-.486-.24.138-.524c.253-.956.651-1.767 1.193-2.413z" mask="url(#h)"/>
            <path stroke="#FFF" stroke-width="1.326" d="M2.504 4.161C3.87 2.531 6.813 1.398 10.885.723L12.81.405 4.42 9.393 3.935 8.9C3.37 8.33 2.613 7.808 1.659 7.338l-.486-.24.138-.524c.253-.956.651-1.767 1.193-2.413z" mask="url(#h)"/>
        </g>
        <path fill="#000" fill-rule="nonzero" d="M19.73 16.734c.287 1.684.28 3.465.058 5.243-.141 1.128-.336 2.037-.498 2.611-.033.08-.033.08-.047.109a.628.628 0 0 1-.312.297c-.066.023-.066.023-.074.027-.33.07-.754.135-1.299.196a24.68 24.68 0 0 1-2.742.154c-3.905 0-7.218-.916-9.334-3.117-1.66-1.728-2.678-4.767-3.192-8.62a41.823 41.823 0 0 1-.354-5.981.65.65 0 0 1 .656-.62c.252.005.684.024 1.222.06a45.04 45.04 0 0 1 2.695.262c2.583.329 4.965.858 6.935 1.63.28-.963.699-1.786 1.256-2.45 1.155-1.379 3.335-2.396 6.16-3.115a31.75 31.75 0 0 1 4.417-.788.643.643 0 0 1 .699.577 30.932 30.932 0 0 1 .027 4.446c-.196 2.884-.805 5.193-1.96 6.571-1.01 1.204-2.462 2.046-4.313 2.508zm-.782 7.937l.006-.004a.022.022 0 0 0-.004.003h-.002zM15.686 7.348c-.477.568-.831 1.293-1.06 2.156 1.003.495 1.827 1.056 2.455 1.692l6.586-7.057c-3.623.6-6.663 1.638-7.981 3.21zm2.62 15.764c.797-4.227.43-8.352-2.097-10.98-2.106-2.191-6.79-3.329-12.073-3.735l14.17 14.715zm-.963.842L3.236 9.304c.159 5.234 1.08 9.892 3.174 12.072 2.37 2.465 6.526 3.052 10.933 2.578zm5.713-10.541c1.352-1.612 1.812-4.87 1.716-8.585l-6.864 7.354c.704.968 1.214 2.079 1.55 3.309 1.566-.398 2.775-1.096 3.598-2.078z"/>
    </g>
</svg>
