<svg xmlns="http://www.w3.org/2000/svg" xmlns:xlink="http://www.w3.org/1999/xlink" width="367" height="56" viewBox="0 0 367 56">
    <defs>
        <path id="a" d="M.24.062h12.148v33.416H.24z"/>
        <path id="c" d="M.375.717h10.618v51.436H.375z"/>
    </defs>
    <g fill="none" fill-rule="evenodd">
        <path fill="#6C6D6B" d="M67.758 13.263l-12.245 1.069v6.663c0 .323-.01.64-.025.958-.006.118-.014.235-.022.355a20.66 20.66 0 0 1-.092 1.025c-.015.147-.035.293-.055.44-.025.175-.05.353-.078.528-.015.091-.032.178-.047.267a20.324 20.324 0 0 1-1.772 5.404c-.354.717-.75 1.408-1.184 2.073l-.09.142a29.77 29.77 0 0 1-.51.733c-.125.172-.252.343-.383.511-.05.062-.098.125-.147.188-.136.168-.273.337-.412.502-.04.048-.084.095-.124.144a20.369 20.369 0 0 1-2.162 2.155c-.048.041-.095.083-.145.124-.165.14-.334.276-.503.41l-.188.149a24.212 24.212 0 0 1-.705.516c-.179.128-.36.253-.544.374l-.138.088a20.75 20.75 0 0 1-2.082 1.181 20.468 20.468 0 0 1-5.419 1.766c-.09.016-.177.034-.269.047-.174.03-.353.054-.53.08-.146.02-.293.038-.439.054a17.384 17.384 0 0 1-1.03.091c-.12.008-.238.017-.354.023-.32.015-.638.025-.96.025-.323 0-.641-.01-.96-.025-.119-.006-.237-.015-.355-.023a16.416 16.416 0 0 1-1.029-.091 15.815 15.815 0 0 1-.44-.055c-.177-.025-.354-.05-.532-.079-.088-.013-.177-.03-.266-.047a20.288 20.288 0 0 1-7.5-2.947l-.141-.088c-.183-.12-.363-.246-.543-.374a21.114 21.114 0 0 1-.704-.517l-.189-.148c-.17-.134-.338-.27-.504-.41l-.144-.124a20.369 20.369 0 0 1-2.162-2.155c-.04-.05-.083-.096-.125-.144a24.724 24.724 0 0 1-.41-.502l-.148-.188a29.91 29.91 0 0 1-.384-.511c-.046-.063-.09-.127-.136-.192-.126-.18-.253-.359-.373-.54l-.09-.143a20.1 20.1 0 0 1-2.18-4.479c-.333-.969-.592-1.97-.774-2.998-.016-.089-.034-.176-.047-.267-.031-.175-.054-.353-.08-.529a23.059 23.059 0 0 1-.103-.89 16.52 16.52 0 0 1-.043-.574l-.024-.355a20.517 20.517 0 0 1-.024-.958v-6.663L2.448 13.263A2.451 2.451 0 0 0 0 15.705v10.583a2.453 2.453 0 0 0 2.448 2.442l5.856-.511a27.447 27.447 0 0 0 2.728 6.566l-4.504 3.768a2.446 2.446 0 0 0 0 3.454l7.505 7.483c.952.95 2.511.95 3.463 0l3.78-4.49a27.532 27.532 0 0 0 6.585 2.719l-.513 5.839A2.452 2.452 0 0 0 29.797 56H40.41a2.452 2.452 0 0 0 2.45-2.442l-.514-5.84A27.532 27.532 0 0 0 48.931 45l3.779 4.491c.953.95 2.51.95 3.464 0l7.505-7.483a2.446 2.446 0 0 0 0-3.454l-4.504-3.768a27.447 27.447 0 0 0 2.728-6.566l5.855.511c1.348 0 2.449-1.1 2.449-2.442V15.705a2.451 2.451 0 0 0-2.45-2.442" opacity=".5"/>
        <g transform="translate(36.212)">
            <mask id="b" fill="#fff">
                <use xlink:href="#a"/>
            </mask>
            <path fill="#00BFA5" d="M.24 5.917c3.426 3.908 5.505 9.011 5.505 14.6a22.03 22.03 0 0 1-4.2 12.961c6.17-1.138 10.843-6.506 10.843-12.961V.062A20.761 20.761 0 0 0 .24 5.917" mask="url(#b)"/>
        </g>
        <path fill="#00BFA5" d="M22.17 14.737v6.129c0 6.699 4.952 12.221 11.35 13.029a13.639 13.639 0 0 0 1.214-5.64c0-7.206-5.555-13.094-12.563-13.518"/>
        <path fill="#00BFA5" d="M22.17.737v12.465c7.864.424 14.11 6.98 14.11 15.008 0 2.011-.396 3.93-1.108 5.685.02-.002.042-.002.064-.002a20.312 20.312 0 0 0 4.671-12.995c0-10.391-7.746-18.956-17.736-20.161"/>
        <g>
            <path fill="#32B9A5" d="M181.1 24.912c-2.54 0-4.605 2.035-4.605 4.536 0 7.82-6.459 14.186-14.399 14.186-7.94 0-14.401-6.366-14.401-14.186 0-2.501-2.066-4.536-4.602-4.536-2.541 0-4.607 2.035-4.607 4.536 0 12.824 10.59 23.258 23.61 23.258s23.608-10.434 23.608-23.258c0-2.501-2.066-4.536-4.605-4.536"/>
            <g fill="#6C6D6B">
                <path d="M227.826 53.478c-1.553 0-3.03-.676-3.99-2.028l-13.739-18.46-3.842 4.654v10.58c0 2.853-2.365 5.254-5.32 5.254-2.806 0-5.169-2.4-5.169-5.253V7.775c0-2.852 2.363-5.253 5.316-5.253 2.808 0 5.173 2.4 5.173 5.253v17.561l16.25-20.865c.889-1.2 2.366-1.8 3.768-1.8 2.66 0 5.024 2.177 5.024 4.88a4.954 4.954 0 0 1-1.108 3.15l-13.15 15.76 14.848 18.835c.667.903 1.034 1.953 1.034 3.004 0 2.625-2.216 5.178-5.095 5.178zm69.263 0c-2.899 0-5.34-2.4-5.34-5.253V7.775c0-2.852 2.441-5.253 5.492-5.253 2.9 0 5.344 2.4 5.344 5.253v40.45c0 2.852-2.443 5.253-5.496 5.253zm47.427-40.72h-10.287v36.115c0 2.953-2.367 5.377-5.325 5.377-2.888 0-5.255-2.424-5.255-5.377V12.758h-10.285c-2.514 0-4.586-2.12-4.586-4.846 0-2.498 2.072-4.618 4.586-4.618h31.152c2.44 0 4.513 2.12 4.513 4.771 0 2.573-2.072 4.693-4.513 4.693zm16.315 41.145c-2.843 0-5.235-2.424-5.235-5.303V7.77c0-2.88 2.392-5.303 5.382-5.303 2.843 0 5.238 2.424 5.238 5.303V48.6c0 2.88-2.395 5.303-5.385 5.303zm-249.512-.425c-7.34 0-16.417-2.366-19.217-6.434-.53-.74-.833-1.627-.833-2.513 0-2.811 2.498-4.882 5.068-4.882.985 0 2.045.222 2.877.812a22.514 22.514 0 0 0 12.636 3.846c5.9 0 8.776-2.66 8.776-5.472 0-8.725-29.055-2.737-29.055-21.297 0-8.21 7.264-15.016 19.144-15.016 5.75 0 14.527 1.851 17.325 5.474.606.74.906 1.626.906 2.516 0 2.809-2.798 4.734-5.37 4.734-.908 0-1.816-.224-2.724-.743-3.48-1.92-7.415-2.808-11.123-2.808-4.614 0-7.188 1.997-7.188 4.953 0 7.84 28.979 2.59 28.979 21.004 0 9.023-6.582 15.826-20.201 15.826zm31.81-35.515c-2.561 0-4.643-2.096-4.643-4.673V8.741c0-2.578 2.082-4.675 4.644-4.675 2.562 0 4.645 2.097 4.645 4.675v4.55c0 2.576-2.083 4.672-4.645 4.672zm37.93-13.897c2.563 0 4.645 2.097 4.645 4.673v4.55c0 2.578-2.082 4.674-4.645 4.674-2.562 0-4.644-2.096-4.644-4.675V8.74c0-2.576 2.082-4.673 4.644-4.673zM254.42 12.758v13.629h11.19c4.281 0 7.508-2.574 7.508-6.816 0-4.237-3.227-6.813-7.507-6.813h-11.19zm18.625 21.806l6.91 11.81c.447.832.674 1.743.674 2.574 0 2.575-2.102 5.302-5.256 5.302-1.878 0-3.604-.987-4.583-2.727l-8.56-15.672h-7.81v13.097c0 2.878-2.402 5.302-5.406 5.302-2.854 0-5.257-2.424-5.257-5.302V9.352c0-3.333 2.705-6.058 6.009-6.058h17.42c10.44 0 16.822 6.889 16.822 16.277 0 8.936-5.556 13.704-10.963 14.993z"/>
            </g>
        </g>
    </g>
</svg>
