<svg xmlns="http://www.w3.org/2000/svg" width="464" height="979" viewBox="0 0 464 979">
    <g fill="none" fill-rule="evenodd">
        <circle cx="13" cy="13" r="13" fill="#FF9800"/>
        <path fill="#FF576E" d="M44.732 951.57c-1.87.68-2.84 2.748-2.163 4.608 2.118 5.817-.915 12.283-6.762 14.41-5.847 2.129-12.328-.874-14.445-6.691-.677-1.86-2.749-2.82-4.617-2.14-1.87.68-2.84 2.747-2.164 4.608 3.472 9.539 14.095 14.46 23.682 10.971 9.587-3.489 14.559-14.087 11.087-23.626-.677-1.86-2.749-2.82-4.618-2.14"/>
        <circle cx="173" cy="486" r="9" fill="#FF576E"/>
        <path fill="#00BFA5" d="M461.837 226.596c-2.049-1.182-4.668-.496-5.837 1.53-3.658 6.336-11.848 8.483-18.256 4.783-6.408-3.7-8.645-11.867-4.987-18.202 1.17-2.026.455-4.637-1.592-5.82-2.05-1.183-4.67-.497-5.84 1.53-5.998 10.389-2.331 23.776 8.176 29.842 10.507 6.066 23.932 2.547 29.93-7.843 1.17-2.026.455-4.637-1.594-5.82"/>
        <circle cx="429" cy="692" r="11" fill="#5C6BC0"/>
    </g>
</svg>
